<?xml version="1.0" encoding="utf-8"?>
<!-- Generator: Adobe Illustrator 24.0.1, SVG Export Plug-In . SVG Version: 6.00 Build 0)  -->
<svg version="1.1" id="Layer_1" xmlns="http://www.w3.org/2000/svg" xmlns:xlink="http://www.w3.org/1999/xlink" x="0px" y="0px"
	 viewBox="0 0 1000 1000" style="enable-background:new 0 0 1000 1000;" xml:space="preserve">
<style type="text/css">
	.st0{fill:#EB9605;}
	.st1{fill:#FC6600;}
</style>
<path class="st0" d="M500.02,359.5c-8.65-6.36-21.08-15.25-36.38-25.31c-67.16-44.16-125.02-67.64-177.17-88.59
	c-31.31-12.57-73.46-28.26-124.55-43.73c6.56,12.64,14.02,27.84,21.73,45.31c2.92,6.62,9.66,22.13,17.4,42.71
	c4.99,13.28,17.65,47.19,26.89,83.84c13.44,53.31,15.03,94.1,17.4,155.02c1.47,37.68,0.72,67.75-6.33,102.82
	c-1.75,8.71-3.51,15.83-4.75,20.56c26.89,7.61,63.5,20.11,104.4,41.13c21.03,10.81,47.07,24.37,75.93,47.46
	c22.59,18.07,55.67,48.97,85.43,97.39"/>
<path class="st1" d="M500.02,359.5c15.33-10.79,36.37-25.3,36.37-25.3c0,0,0,0,0,0c0,0,0.01,0,0.01,0
	c67.16-44.06,123.71-67.12,177.17-88.59c31.31-12.57,73.46-28.26,124.55-43.73c-6.56,12.64-14.02,27.84-21.73,45.31
	c-2.92,6.62-9.66,22.13-17.4,42.71c-4.99,13.28-17.65,47.19-26.89,83.84c-13.44,53.31-15.03,94.1-17.4,155.02
	c-1.47,37.68-0.72,67.75,6.33,102.82c1.75,8.71,3.51,15.83,4.75,20.56c-26.89,7.61-63.5,20.11-104.4,41.13
	c-21.04,10.81-47.07,24.38-75.93,47.46c-22.59,18.07-55.66,48.97-85.42,97.39c-29.76-48.42-62.84-79.32-85.43-97.39
	c-28.86-23.08-54.9-36.64-75.93-47.46c-41.06-21.12-77.73-33.59-104.4-41.13c22.38-37.8,43.64-68,60.12-89.92
	C294.39,562.23,387.07,438.97,500.02,359.5z"/>
</svg>
